<svg id="Layer_1" data-name="Layer 1" xmlns="http://www.w3.org/2000/svg" viewBox="0 0 992.13 284.51"><defs><style>.cls-1{fill:#fff;}</style></defs><title>signature</title><path class="cls-1" d="M4.35,137.6q4-7.57,29-24.63,9.24-6.36,21.84-13.88t29.1-16.33a240.33,240.33,0,0,1,32.65-14.55q16.17-5.73,26.87-5.74,7.25,0,11.7,2.79,6.47,4,6.46,12.6,0,10.47-10.7,28.64c-.29.52-1.06,1.75-2.28,3.68s-2.36,3.73-3.4,5.41a29.89,29.89,0,0,0-1.78,3.06,17.7,17.7,0,0,0,2.39-2c1-.93,1.65-1.5,1.95-1.73l25.53-20.84q26.09-20.07,40-29,26.09-16.94,41.58-20a35.19,35.19,0,0,1,5.57-.56,17.78,17.78,0,0,1,9.53,2.45,12.91,12.91,0,0,1,5.52,7.14A24,24,0,0,1,277,61.81q0,7.47-3.34,18.72a268.18,268.18,0,0,1-11.87,30.93q-8.08,18.23-16.22,33.61l-15.83,30.2q-.1.22-5.24,10.15c-.29.59-.74,1.47-1.33,2.62s-1,2-1.34,2.62a28.29,28.29,0,0,0-1.23,2.56c-.52,1.19-.89,2-1.11,2.56a2.59,2.59,0,0,1-2.45,1.45,4.31,4.31,0,0,1-3-1.22,4.2,4.2,0,0,1-1.34-3.24,6.78,6.78,0,0,1,.56-2.34q3.9-9.13,20.84-40.57,8.35-15.6,20.4-41.46,14-30.43,15.16-46.15c.14-1.34.22-2.3.22-2.9,0-4.45-1.71-6.91-5.13-7.35a13.53,13.53,0,0,0-2.12-.11q-9.59,0-31.76,12.26Q222.14,69.06,212,76q-9.58,6.47-18.06,12.82l-17.5,13.49c-.44.37-1.17.94-2.17,1.72s-1.73,1.36-2.17,1.73l-47.71,40.8a9.06,9.06,0,0,0-1,.89l-.89.89c-1,.89-1.71,1.49-2,1.78L114.81,156c-1.27,1.49-2.38,2.86-3.35,4.13l-18,20.62a25.82,25.82,0,0,1-3.57,4,14.53,14.53,0,0,0-1.9,2.12L75.24,200.8a17.85,17.85,0,0,0-1.84,1.89c-.78.9-1.43,1.6-2,2.12l-2,1.95a1.41,1.41,0,0,1-.67.28,10,10,0,0,0-1.84.78H64.76c-2.68-1.63-4-3.31-4-5a8.38,8.38,0,0,1,1.33-3.91l6-8c.82-.89,2-2.16,3.51-3.79s2.66-2.9,3.4-3.79l21.18-21.51c.37-.37,1.51-1.4,3.4-3.07s3.21-2.91,4-3.73a37.75,37.75,0,0,1,3.84-3.74c1.68-1.44,2.81-2.47,3.4-3.06q1.35-1.33,6.52-8t6.19-7.8l6.24-8.14q23.19-31.87,24.86-46a20.56,20.56,0,0,0,.11-2.34,5.61,5.61,0,0,0-1.34-4.18,8.44,8.44,0,0,0-4.68-1.73,29.73,29.73,0,0,0-3.12-.22q-15.49,0-51.16,16.83Q82.71,92,67.16,101.1T40.57,117.76Q12.49,137.26,9.92,144h.33q13.16,0,56.85-18.16c4.68-1.94,7.5-2.9,8.47-2.9a2.4,2.4,0,0,1,.89.11,4.37,4.37,0,0,1,2.23,1.56,4,4,0,0,1,1,2.56c0,1.42-.86,2.46-2.57,3.12q-6,2.79-14.6,6.47T37,145.9q-16.95,5.52-25.64,5.52-9.48,0-9.47-6.13C1.9,143.21,2.71,140.65,4.35,137.6Z"/><path class="cls-1" d="M275.65,130.69h.66a4,4,0,0,1,3,1.45,4.49,4.49,0,0,1,1.34,3.12c0,.6-.65,1.82-2,3.68a13.93,13.93,0,0,0-2.4,5,1.26,1.26,0,0,0,.78,1.56,14.51,14.51,0,0,0,5.24.78q10.49,0,24.3-5.35a22.14,22.14,0,0,1,5-1.67,4.32,4.32,0,0,1,2.56.89,4.28,4.28,0,0,1,1.9,3.46,3,3,0,0,1-2.12,2.79q-15.94,7.13-29.2,7.13-7.59,0-11.71-2.9a12.62,12.62,0,0,1-2.56-2.67,8.4,8.4,0,0,1-1.56-4.91,14.8,14.8,0,0,1,2-6.69c.82-1.41,1.45-2.48,1.9-3.23A5.05,5.05,0,0,1,275.65,130.69Zm27.19-47.82h.78a5,5,0,0,1,3.46,1.45,5.3,5.3,0,0,1,1.78,3.23c.3,1.94-.07,3.27-1.11,4A5.63,5.63,0,0,1,307,92a1.74,1.74,0,0,1-.67.16,5.31,5.31,0,0,1-.72-.05,2.07,2.07,0,0,1-.67-.17c-.15-.07-.37-.17-.67-.28a5.69,5.69,0,0,1-.67-.28h-.11a5.12,5.12,0,0,0-1.89,1,29.5,29.5,0,0,0-2.79,2.06q-1.33,1.13-2.73,2.34A15.56,15.56,0,0,1,294.48,98a13.46,13.46,0,0,0-1.67,1.51c-.45.48-.78.83-1,1a2.69,2.69,0,0,1-2,.79,4.51,4.51,0,0,1-3-1.29A4,4,0,0,1,285.34,97a3.14,3.14,0,0,1,.28-1.28,5.17,5.17,0,0,1,.89-1.29c.41-.44.74-.79,1-1s.68-.63,1.28-1.12.93-.76,1-.83C296,86.1,300.32,83.25,302.84,82.87Z"/><path class="cls-1" d="M365.6,144.73l-.12.23a13.87,13.87,0,0,1-.89,1.33,9,9,0,0,1-2.62.84c-1.45.33-2.86.63-4.23.89l-4.57.84c-1.67.3-2.59.44-2.73.44q-11.37,1.78-17.17,2.34a117.86,117.86,0,0,1-13.15.9,41.06,41.06,0,0,1-5.24-.34,12.26,12.26,0,0,1-6.91-2.9,5,5,0,0,1-1.56-3.68,5.17,5.17,0,0,1,1.23-3.23c.59-.74,1-1.18,1.11-1.33l1.23-1.23a24.61,24.61,0,0,1,2.56-2.34,50.48,50.48,0,0,1,9.53-5.63,24.09,24.09,0,0,1,9.86-2.62,8.8,8.8,0,0,1,1.56.11q4.47.78,5.35,4.46a3.14,3.14,0,0,1,.12,1c0,2.08-1.27,4.15-3.79,6.19s-4.28,3.1-5.24,3.18a4.42,4.42,0,0,1-3.35-1.56,5.53,5.53,0,0,1-1.33-3.57,24.17,24.17,0,0,0-4.91,2.67q-3.57,2.13-4.23,3.46a25.46,25.46,0,0,0,2.89.11A146.49,146.49,0,0,0,337,143.73q11.7-1.56,18.84-3,5.56-1.23,6.24-1a5,5,0,0,1,2.23,1.34c.07.07.52.85,1.34,2.34Z"/><path class="cls-1" d="M501,25.25a3.48,3.48,0,0,0,.5.33,2.35,2.35,0,0,1,.5.34l.51.39a4.12,4.12,0,0,1,.55.44c.12.11.26.28.45.5a3.42,3.42,0,0,1,.39.56,4.1,4.1,0,0,1,.22.56,3.8,3.8,0,0,1,.17.72,5.53,5.53,0,0,1,.06.84,2,2,0,0,1-.39,1.34,13.39,13.39,0,0,1-1.29,1.17,10.13,10.13,0,0,0-1.78,2q-11.15,15-19.39,28.2-2.34,3.78-7.69,12T464.3,89.56q-4.19,6.69-7.31,12-1.33,2.34-5.57,9.14t-6.35,10.59q-1.9,3.45-6.08,10.31t-5.85,9.75q-4.9,8.36-11.59,20.06-1.33,2.34-6,10.93t-5,9.69l12.6-15.82,2.12-2.79,16.49-21.85a3.31,3.31,0,0,0,.39-.5,4.06,4.06,0,0,1,.34-.44l.39-.39c.22-.23.39-.32.5-.28a1.17,1.17,0,0,0,.67-.17.83.83,0,0,1,.84,0,5,5,0,0,1,2.84,1.5,4,4,0,0,1,1.28,2.85,3.22,3.22,0,0,1-.39,1.44,9.93,9.93,0,0,1-.78,1.34c-.26.38-.6.82-1,1.34a11.68,11.68,0,0,1-.84,1c-.89,1.34-2.44,3.42-4.63,6.25s-3.73,4.9-4.62,6.24Q434.48,165,425,177t-11.59,14.21c-.22.23-1,1.12-2.39,2.68s-2.44,2.73-3.18,3.51a16.8,16.8,0,0,1-3,2.4,6.44,6.44,0,0,1-3.34,1.22,3.47,3.47,0,0,1-1.9-.56,5.33,5.33,0,0,1-2.9-4.9q0-3,2.57-8.58,1.33-2.89,3.06-6.47c1.15-2.37,2.25-4.57,3.29-6.57s2.4-4.52,4.07-7.53l4-7.13q1.44-2.62,4.34-7.75c1.93-3.41,3.27-5.74,4-7s2.13-3.61,4.18-7.14,3.24-5.59,3.62-6.18a40.06,40.06,0,0,0,3.45-6,165,165,0,0,1-33.32,10.14q-1.79.33-12.93,1.67c.07.38.22,1.06.44,2.06a11.41,11.41,0,0,1,.34,2.4c0,1.93-1,4.12-3.12,6.58a25.15,25.15,0,0,1-8.92,6.07,27.32,27.32,0,0,1-11,2.62,10.43,10.43,0,0,1-1.89-.11,11.62,11.62,0,0,1-5.57-2.06,8.11,8.11,0,0,1-3.24-4.18,7.82,7.82,0,0,1-.33-2.23q0-4.78,5.74-9.09c3.83-2.85,6.7-4.29,8.64-4.29a4.25,4.25,0,0,1,2.78,1,4.34,4.34,0,0,1,1.56,2.45,1.13,1.13,0,0,1,.17,1.23,1.93,1.93,0,0,0-.22.94c0,.19-.13.41-.5.67l-.73.5a5.07,5.07,0,0,1-.89.39l-1,.39a29.37,29.37,0,0,0-5.12,3.18A8.3,8.3,0,0,0,361,149.3a13.9,13.9,0,0,0,2.22.23A21.87,21.87,0,0,0,374.51,146q5.91-3.57,6-7c-.15-.6-1.58-1.45-4.29-2.57s-4.07-2.6-4.07-4.45q0-3.24,4.68-2.46a27.89,27.89,0,0,0,5.13.34h2.34a116,116,0,0,0,25.14-4.4,118.33,118.33,0,0,0,23.9-9,34.13,34.13,0,0,0,4.07-2.45c1.15-.82,2.1-1.5,2.84-2.06a12.46,12.46,0,0,0,2.29-2.34,27.06,27.06,0,0,0,1.67-2.34l1.9-3.18q1.39-2.34,2.28-3.79l36.45-57.18q9.81-14.71,13-17.28l.45-.33.11-.11.22-.11Z"/><path class="cls-1" d="M441.17,142.73l.22-.23a11.71,11.71,0,0,1,1.67-2.67,10.49,10.49,0,0,1,2.68-1.9,49.74,49.74,0,0,1,14.93-3.79h.67a5.76,5.76,0,0,1,3.35,1,3.67,3.67,0,0,1,1.67,2.45q1-.22,17.94-4.9a4.76,4.76,0,0,1,4.46.55q3.45,2.79.89,5.8c-1.93,2.16-3,3.86-3.23,5.13H488q7.47,0,19.17-3.24l4.68-1.33a3.8,3.8,0,0,1,1.12-.11,4.07,4.07,0,0,1,3.17,1.44,4.63,4.63,0,0,1,1.29,3.13,2.86,2.86,0,0,1-.34,1.33c-.3.6-1.63,1.23-4,1.9q-7.24,2-9.59,2.56a90.42,90.42,0,0,1-10.25,1.67,22.43,22.43,0,0,1-2.68.11,15,15,0,0,1-8.36-2.17q-3.33-2.17-3.23-7.08-1.23,0-9.81,2.45-1.22.34-9.81,2.35a67.56,67.56,0,0,1-10.58,1.67q-3.47,0-5-1.12a5.71,5.71,0,0,1-1.17-1,3.82,3.82,0,0,1-.67-1c-.11-.26-.24-.57-.39-.95s-.26-.63-.33-.77Z"/><path class="cls-1" d="M511.28,154.65a36.42,36.42,0,0,1-1.45-8.24,17.49,17.49,0,0,1,.44-3.91,26,26,0,0,1,4.35-9.8,30.38,30.38,0,0,1,4.79-5.8l2.12-2.06c1.12-1.08,2.08-2,2.9-2.73s1.78-1.58,2.9-2.51a27.19,27.19,0,0,1,3.12-2.29A8.18,8.18,0,0,1,533,116.2a4.39,4.39,0,0,1,4.91,1.78,5.21,5.21,0,0,1,1.11,3.23c0,1.27-.93,3.57-2.79,6.92a46.53,46.53,0,0,1-3,4.51c-1.33,1.82-2.23,3.1-2.67,3.85-1.34,2-2.79,2.71-4.35,2.11a3.3,3.3,0,0,1-1.5-.83l-.5-.5a2.14,2.14,0,0,1-.39-.56c-.12-.22-.21-.41-.28-.56s-.17-.35-.28-.61a1.79,1.79,0,0,0-.28-.5,22.85,22.85,0,0,0-4.46,7,17.91,17.91,0,0,0-1.45,7,4.84,4.84,0,0,0,.56,2.56c1-.37,3.16-1.31,6.58-2.84s6-2.65,7.74-3.4,4-1.63,6.8-2.67,5.3-1.86,7.53-2.45a15.86,15.86,0,0,1,5.79-1,3.84,3.84,0,0,1,2.9,1.56,4.9,4.9,0,0,1,1.11,3,2.45,2.45,0,0,1-2.11,2.68,88,88,0,0,0-15.27,4.68q-2.79,1.11-7.47,3.18t-6.69,2.84c-.22.07-.93.39-2.12.95a26.21,26.21,0,0,1-2.45,1.05,12.07,12.07,0,0,1,.11,1.79,6.3,6.3,0,0,1-1.45,4.46,10.89,10.89,0,0,1-5.12,2.56,38.41,38.41,0,0,1-9.93,1.78,6.57,6.57,0,0,1-3.12-.56c-2.23-1.33-3.15-3-2.78-5.12q.33-1.78,3.4-3.79a55,55,0,0,1,6.41-3.62A22.57,22.57,0,0,0,511.28,154.65Z"/><path class="cls-1" d="M537.58,78.08c0-.07.43-1.43,1.28-4.07a46.27,46.27,0,0,1,4.74-9.53c1.11-1.86,2.38-2.79,3.79-2.79s2.53.86,3.57,2.57q1.11,2-.56,4.57-5.58,7.8-5.57,13.71,0,7.24,8.24,11.48,15.61,7.92,48.83,7.91,8.46,0,20.28-.67,10-.56,23.85-2.11,3-.34,10.82-1.57T668.66,96c-.07-.81-.11-1.89-.11-3.23a19,19,0,0,1,2.9-10.25q7-11.26,27.86-19.34t39-8.08q10.93,0,16.72,3.45,5.46,3.47,5.47,8.92a10.47,10.47,0,0,1-.12,1.78q-.78,4.8-7.13,9.26-7.35,5.11-22.4,10.47-9.37,3.34-17.11,5.35t-18.51,4.18q-10.75,2.18-16.55,3.51,3.9,5.8,13.1,11A142.85,142.85,0,0,0,709,121.55c5.35,2.16,8.21,3.45,8.58,3.9a4.14,4.14,0,0,1,1,2.51,3.08,3.08,0,0,1-.9,2.51l-9.25,4.34q-6,2.56-16,7.53l-12,6q-1.58.78-4.57,2.45t-4.35,2.34q-7.47,3.69-18.23,10.2a182.41,182.41,0,0,0-16.21,10.76q-12.71,9.69-12.38,15.27,6.69,3.68,19.51,3.68,15.5,0,39-5.8T723,175.61q16.32-5.79,29.26-11.26,30.09-12.58,40-19.84a18.1,18.1,0,0,0,2-1.5l1.45-1.29a5.51,5.51,0,0,1,1.06-.72,2.78,2.78,0,0,1,1.23-.28.94.94,0,0,1,.28.06.78.78,0,0,0,.27.05,4.64,4.64,0,0,1,2.57,1.51,4,4,0,0,1,1.22,2.84,3.55,3.55,0,0,1-.44,1.45q-2.34,4.45-19.9,12.93t-32.38,14.38q-9.58,3.78-20,7.41t-25.85,8.36a290.22,290.22,0,0,1-31,7.69,148.82,148.82,0,0,1-27.36,2.95q-16.17,0-24-5.79a9.16,9.16,0,0,1-3.9-7.92,12.3,12.3,0,0,1,1.78-6.13,32.4,32.4,0,0,1,5.46-6.57,55.53,55.53,0,0,1,7-5.91q17.94-13,46.92-27.64,24.3-11.92,26.86-12.82c-.22-.15-1.71-.91-4.45-2.29s-6-3.08-9.76-5.12a67.66,67.66,0,0,1-9.19-5.86,63.46,63.46,0,0,1-6.24-5.57q-3.35-3.35-4.13-5.46-3.35.33-9.58,1.28c-4.17.63-7.1,1.06-8.81,1.28a391.08,391.08,0,0,1-49.15,3.35q-28.32,0-45.37-5.58-13.15-4.23-18.5-12.7a16.43,16.43,0,0,1-1.67-4,28.36,28.36,0,0,0-1.12-3.34ZM675.68,94.8q13.83-1.68,38.29-8.7t33.27-13.26c1.41-1,2.38-1.63,2.9-2a9.21,9.21,0,0,0,2-2.34,6,6,0,0,0,1.06-3.67Q748.7,62.36,740,62.36a100.15,100.15,0,0,0-27,4.18,86.9,86.9,0,0,0-26,11.93Q675.8,86.21,675.68,94.8Z"/><path class="cls-1" d="M804,142.84l6.91-3.12q6-2.46,9.69-2.45a6.46,6.46,0,0,1,4.07,1.17,14.34,14.34,0,0,1,3,3.45,18.37,18.37,0,0,0,2.84,3.51c1.56,1.34,3.87,2,6.91,2q8.6,0,24.75-6.91c1.78-.74,3.05-1,3.79-.78a4.63,4.63,0,0,1,2.51,1.73,4.34,4.34,0,0,1,.94,2.62,2.83,2.83,0,0,1-.55,1.67,12.74,12.74,0,0,1-3.35,1.89q-15.93,6.92-26.19,6.91-8.35,0-13-4.34a23,23,0,0,1-4.46-5.69q-5.46.56-17.83,7.25-2,1.11-4.13,2.23l-2,1.11c-.93.52-1.62.89-2.06,1.11a3.07,3.07,0,0,1-1.34.23,4.09,4.09,0,0,1-3-1.4,4.33,4.33,0,0,1-1.34-3.06,4.59,4.59,0,0,1,.34-1.56q1.46-2.68,4.51-8t4.52-8q1.34-2.56,2.67-2.79a2.29,2.29,0,0,1,.67-.11,4.32,4.32,0,0,1,3.79,2.45,3.76,3.76,0,0,1,.56,2,7.57,7.57,0,0,1-1.45,3.51A15.61,15.61,0,0,0,804,142.84Z"/><path class="cls-1" d="M868.73,142.84l6.92-3.12q6-2.46,9.69-2.45a6.46,6.46,0,0,1,4.07,1.17,14.34,14.34,0,0,1,3,3.45,18.37,18.37,0,0,0,2.84,3.51c1.56,1.34,3.87,2,6.91,2q8.58,0,24.75-6.91c1.78-.74,3-1,3.79-.78a4.63,4.63,0,0,1,2.51,1.73,4.34,4.34,0,0,1,.94,2.62,2.83,2.83,0,0,1-.55,1.67,12.74,12.74,0,0,1-3.35,1.89q-15.94,6.92-26.19,6.91-8.36,0-13-4.34a23,23,0,0,1-4.46-5.69q-5.46.56-17.84,7.25c-1.33.74-2.71,1.48-4.12,2.23l-2,1.11c-.93.52-1.62.89-2.06,1.11a3.1,3.1,0,0,1-1.34.23,4.09,4.09,0,0,1-3-1.4,4,4,0,0,1-1-4.62q1.44-2.68,4.51-8t4.52-8q1.34-2.56,2.67-2.79a2.24,2.24,0,0,1,.67-.11,4.32,4.32,0,0,1,3.79,2.45,3.76,3.76,0,0,1,.56,2,7.57,7.57,0,0,1-1.45,3.51A16.26,16.26,0,0,0,868.73,142.84Z"/><path class="cls-1" d="M934.83,143.73q1.23.9,11.37.89h3.68a171.06,171.06,0,0,0,28.42-3.45c.74-.15,1.84-.39,3.29-.73s2.54-.57,3.29-.72a7.9,7.9,0,0,1,3.34-.5,4.72,4.72,0,0,1,2.57,1.5,4.37,4.37,0,0,1,1.33,2.84,2.56,2.56,0,0,1-1.33,2.51c-.9.45-4,1.17-9.2,2.18s-8.82,1.61-10.76,1.83a168.63,168.63,0,0,1-23.74,1.9q-14.16,0-18.83-3.79c-1.94-1.56-2.9-3.23-2.9-5,0-1.11,1.07-2.67,3.23-4.68A54.71,54.71,0,0,1,948.21,126a21.73,21.73,0,0,1,7.47-1.34,8,8,0,0,1,5.23,1.56q3.12,2.56,2,5.69a4.22,4.22,0,0,1-.72,1.28c-.34.41-.69.8-1.06,1.17a8.69,8.69,0,0,1-1.45,1.11c-.6.38-1.14.69-1.62,1s-1.11.56-1.89.89l-1.84.78c-.45.19-1.1.43-2,.73s-1.43.5-1.73.61-.87.3-1.73.56a14.35,14.35,0,0,1-1.39.39q-1.78.56-6.35,1.56l-5,1.11A2.23,2.23,0,0,0,934.83,143.73Z"/></svg>