<?xml version="1.0" encoding="utf-8"?>
<!-- Generator: Adobe Illustrator 23.1.0, SVG Export Plug-In . SVG Version: 6.00 Build 0)  -->
<svg version="1.1" id="Layer_1" xmlns="http://www.w3.org/2000/svg" xmlns:xlink="http://www.w3.org/1999/xlink" x="0px" y="0px"
	 viewBox="0 0 394.8 394.9" style="enable-background:new 0 0 394.8 394.9;" xml:space="preserve">
<style type="text/css">
	.st0{fill:url(#SVGID_1_);}
	.st1{fill:url(#SVGID_2_);}
	.st2{fill:url(#SVGID_3_);}
	.st3{fill:url(#SVGID_4_);}
	.st4{fill:url(#SVGID_5_);}
	.st5{fill:url(#SVGID_6_);}
	.st6{fill:url(#SVGID_7_);}
	.st7{fill:url(#SVGID_8_);}
</style>
<title>icon</title>
<linearGradient id="SVGID_1_" gradientUnits="userSpaceOnUse" x1="-64.2125" y1="25.0025" x2="144.4375" y2="233.6525" gradientTransform="matrix(1 0 0 -1 0 432)">
	<stop  offset="0" style="stop-color:#4E3480"/>
	<stop  offset="0.97" style="stop-color:#9653F1"/>
	<stop  offset="1" style="stop-color:#9854F4"/>
</linearGradient>
<path class="st0" d="M-50.6,394.1l0.2-1.6l-0.8,1.1c0,0.4,0.1,0.7,0.2,1.1C-51,394.5-50.8,394.3-50.6,394.1z"/>
<linearGradient id="SVGID_2_" gradientUnits="userSpaceOnUse" x1="-54.445" y1="15.235" x2="154.205" y2="223.885" gradientTransform="matrix(1 0 0 -1 0 432)">
	<stop  offset="0" style="stop-color:#4E3480"/>
	<stop  offset="0.97" style="stop-color:#9653F1"/>
	<stop  offset="1" style="stop-color:#9854F4"/>
</linearGradient>
<path class="st1" d="M-53.7,414.5c-1.4,1.4-2.5,3.1-3.2,5c0.1,0.7,0.1,1,0.1,1.2l2.4-2.7C-52.6,416.1-52.7,414.7-53.7,414.5z"/>
<linearGradient id="SVGID_3_" gradientUnits="userSpaceOnUse" x1="-53.55" y1="14.34" x2="155.1" y2="222.99" gradientTransform="matrix(1 0 0 -1 0 432)">
	<stop  offset="0" style="stop-color:#4E3480"/>
	<stop  offset="0.97" style="stop-color:#9653F1"/>
	<stop  offset="1" style="stop-color:#9854F4"/>
</linearGradient>
<path class="st2" d="M-56.8,420.6l-1,1.1l1-0.6c0-0.1,0-0.2,0-0.3V420.6z"/>
<linearGradient id="SVGID_4_" gradientUnits="userSpaceOnUse" x1="-731.1285" y1="21.2112" x2="-522.4684" y2="229.8712" gradientTransform="matrix(1 0 0 -1 0 432)">
	<stop  offset="0" style="stop-color:#4E3480"/>
	<stop  offset="0.97" style="stop-color:#9653F1"/>
	<stop  offset="1" style="stop-color:#9854F4"/>
</linearGradient>
<path class="st3" d="M-424.9,76c30.6-13.7,62-25.5,94-35.2c1.1-0.3,1.9-0.9,1.8-1.4s-1-0.5-2-0.2c-32.1,9.7-63.5,21.4-94.1,35.1
	c-1,0.5-1.7,1.2-1.7,1.6S-425.9,76.4-424.9,76z"/>
<linearGradient id="SVGID_5_" gradientUnits="userSpaceOnUse" x1="35.6504" y1="-74.8604" x2="244.3004" y2="133.7896" gradientTransform="matrix(1 0 0 -1 0 432)">
	<stop  offset="0" style="stop-color:#4E3480"/>
	<stop  offset="0.97" style="stop-color:#9653F1"/>
	<stop  offset="1" style="stop-color:#9854F4"/>
</linearGradient>
<path class="st4" d="M489.5,51.3c-0.7,0.4-0.6,0.9,0.2,1.1c0.9,0.2,1.8,0.1,2.6-0.2c0.6-0.3,0.5-0.9-0.2-1.1
	C491.2,50.8,490.3,50.9,489.5,51.3z"/>
<linearGradient id="SVGID_6_" gradientUnits="userSpaceOnUse" x1="-912.1161" y1="-54.995" x2="-607.1861" y2="249.935" gradientTransform="matrix(1 0 0 -1 0 432)">
	<stop  offset="0" style="stop-color:#5438B8"/>
	<stop  offset="1" style="stop-color:#9854F4"/>
</linearGradient>
<path class="st5" d="M-306.4,45.8c-55.3-1.3-110.1,9.5-159.7,28.3l-8.3,2.5l0,0c-1.4-1.5-3.6-2.5-6.5-3.1l13.4-4.4
	c4.5-1.5,9-2.7,13.5-4.1s9-2.8,13.6-3.9l13.7-3.6c15.5-2.9,31.1-5.1,46.7-6.9c2.3-0.3,4.1-1.3,4-2.3s-2-1.5-4.4-1.3l-11.6,1.3
	c3-1.7,4.9-3.7,4.8-5.7s-1.9-3.5-4.8-4.5l12.8-3l3.2-0.8l3.2-0.7l6.4-1.4l12.7-2.8l12.7-2.6c1-0.2,1.5-0.6,1.1-1
	c-0.7-0.5-1.6-0.6-2.4-0.4l-9.2,0.9c-3.1,0.4-6.1,0.9-9.2,1.3c-6.1,0.9-12.2,1.7-18.2,2.8l-18.1,3.4c-3,0.5-6,1.3-9,1.9l-9,2
	c-9.7,0.3-19.3,1.2-29.1,2.1l-3.7,0.4l-3.7,0.5l-7.4,1.1c-5,0.8-10.1,1.6-15.2,2.8c-29.9,6.6-56.5,18.4-81.8,31.7
	c-2.4,0.8-4.9,1.6-7.3,2.5l-7.2,2.8c-4.8,1.9-9.5,3.8-14.2,5.8c0.9-1.4,1.2-2.8,0.7-3.8c-0.1-0.3-0.3-0.5-0.6-0.7l12.5-5.4
	c4.2-1.8,8.3-3.7,12.6-5.3c39.6-15.8,78.4-29.9,118.2-40.9l14.9-4.1l15-3.7l7.5-1.8c2.5-0.6,5-1.1,7.5-1.6l15.2-3.2
	c2.5-0.6,5.1-1,7.6-1.4l7.7-1.3l7.7-1.3c2.6-0.5,5.1-0.9,7.7-1.2c10.3-1.3,20.6-3,31-3.8c5.3-0.3,9.2-2.4,8.5-4.5s-5.6-3.7-11-3.3
	c-40.6,0.8-77.5,8.8-116.3,20.4c-26.5,7.8-52.5,17-78.1,27.4c-31.1,12.7-59.9,24.3-89.2,39.1c-1.5,0.6-3,1.2-4.5,1.8
	c-1.5,0.7-2.9,1.4-4.3,2.3l-8.5,5c-22.6,12.1-44.9,24.2-66.2,37.7c23.8-18.6,48.8-35.7,74-52.2c1.9-1.1,2.8-2.4,2.2-3.1
	s-2.8-0.3-4.6,0.9l-13.6,8l-6.8,4l-6.6,4.2l-13.3,8.4l-13,8.8c-8.8,5.8-17.1,12.2-25.5,18.3c-2.1,1.5-4.2,3.1-6.2,4.8l-6.2,4.9
	l-6.1,4.9c-2.1,1.6-4.1,3.2-6.1,5c-3.9,0.5-7.8,1.5-11.5,2.9c-2.1,0.8-4.3,1.7-6.5,2.7c-2.3,1-4.6,2.2-6.8,3.5
	c-9.6,5.5-18.5,12.1-26.6,19.6c-2.9,2.7-5.6,5.5-8.2,8.5c-2.5,2.9-4.8,5.9-7,9.1c2.7-2.3,5.2-4.6,8-6.8
	c-7.1,7.6-11.9,15.3-16.5,22.9c-0.6,0.5-1.2,1-1.8,1.6c-8.7,6.5-16.7,13.8-23.9,21.9c-3.8,4.1-7.7,8.3-11.3,12.6
	c-3.7,4.3-7.3,8.5-11,12.6l3.2,0.5c-3,2.8-6,3.5-8.9,6.9l3.8-1.7l-0.2,0.2c-4.4,3.4-8.3,7.4-11.5,12c-2.9,2.1-5.7,4.4-8.3,6.8
	c-2.7,2.5-5.4,5.2-8.1,8.1s-5.4,5.9-8,9s-5.1,6.5-7.5,10l-1,1.5c-2.8,1.9-5.1,4.3-6.8,7.2c-1.1,1.3-2.2,2.5-3.4,3.7
	c-5,3.9-9.8,8.3-14.1,12.9c-1.2,1.2-2.4,2.5-3.5,3.8c-1.2,1.3-2.2,2.7-3.4,4.1c-2.2,2.8-4.5,5.8-6.7,8.8l6.3-6.6
	c-2.8,3.5-5.3,7.3-7.5,11.2c0.7-0.2,1.5-0.5,2.2-0.7c-1.3,1.5-2.6,3-3.8,4.6c-1.2,1.7-2.3,3.4-3.3,5.2c-2.1,3.6-3.9,7.4-5.4,11.4
	c-3,7.7-4.2,15.6-3.6,21.4c1.3,11.7,10.1,11.2,19.3-0.5c0.5-0.6,0.9-1.1,1.4-1.7c-2.1,7.1-2.8,13.8-1.2,18.4
	c0.9,2.5,3.7,1.8,5.8,2.2c2.6,1.7,7.3-2.5,10.4-9.3c0.8-1.8,1.4-3.6,1.9-5.5l0.8-1.3c1.5-2.3,2.9-4.7,4.4-7
	c2.9-4.7,5.8-9.3,8.8-13.6c1-1.2,1.6-2.8,1.5-4.3c-0.3-1-1.4-0.7-2.4,0.7l-11.7,14.2c0,0.5-0.1,1-0.1,1.6c-0.2-0.3-0.3-0.7-0.3-1
	c-0.3,0.4-0.7,0.9-1.1,1.3c0.1-0.4,0.1-0.9,0.2-1.3l0.7-1.1c0-0.9,0-1.9,0.2-2.8c1.5-2.6,3.1-5.1,4.6-7.6c1.9-3.2,4.2-6.3,6.3-9.3
	c2.1-3,4.4-5.9,6.6-8.7c0.4-0.5,1.2,1,2.1,0.3c0.5-0.4,0.9-0.7,1.4-1.1c-1.1,1.4-2.1,3-3.2,4.6c-1.7,7.5-2.3,10.4-2.8,12.3l0,0
	c0,0,0,0-0.1,0.6c-0.2,0.9-0.4,1.7-0.6,2.8h0.1c0,0.2-0.1,0.5-0.1,0.8c-0.5,1-1.1,1.9-1.7,2.9c-0.6,0.9-0.9,1.9-0.8,3
	c-0.5,0.3-1.1,0.6-1.6,0.9c-3.3,5.5-3.3,5.5-6.6,11.2c0.3,0.1,0.6,0.1,0.9,0.1c-0.5,1.6-1.1,3.1-1.8,4.6c-0.9,2.3-0.9,2.3-3.8,7.7
	l2.4-2.2l-1.9,2h1.7l-2,0.4l0.8,1.5l-5.5,3.4c-0.1,0.4-0.3,1.4-0.8,3.8c0,0.5,0.1,0.9,0.3,1.4c0.4,0.2,0.4,0.2,1.1,2.7
	c0.3,0.2,0.7,0.2,1.1,0.3c0.7-0.4,0.7-0.4,2.1,0c0.6-0.3,1.1-0.7,1.7-1.2c0.6-0.8,0.8-1,3-4c0.1,0.4,0.2,0.7,0.4,1.1
	c2.2,1.7,2.2,1.6,9.6-0.1c1.9-1.4,3.7-3,5.2-4.8l2.4-4.2c0.6-1.1,1.3-2.3,2.7-4.6c0,0,0.7-1,1.8-2.6c1-0.7,2.1-1.2,3.2-1.8l0,0
	c-0.4,0.9-0.6,1.8-0.7,2.8c-0.2,2.5,1,3.5,2.8,2.1c2.6,4.1,6.7,4.2,11.3,2.7c0.7,1.4,1.9,2.5,3.3,3c1.6,4.9,4,8.5,7.2,11l3,1.8
	c3,0.2,6.9-1.5,10.7-4.8l1.3-0.9l2,2.4c4.7-1,9.6-3.5,14.5-6c2.4-1.3,5-2.5,7.5-3.6c2.4-1.1,4.8-2,7.3-2.8l5.7-2.8
	c2.5-1.1,4.7-2.6,6.8-4.4c2.5-2.1,4.8-4.4,6.8-7l4.5-5.7c0.8-1.3,1.5-2.6,2.4-3.9c-0.8,8.4,1.8,14.6,7.2,16.1
	c2.5,0.6,5.1,0.4,7.5-0.6c1.4-0.5,2.7-1.2,4-1.9c1.5-0.8,2.9-1.8,4.2-2.8c5.7-4.2,11-10.9,15.5-18.5c12.8-19.6,26.6-38.4,41.5-56.5
	c14.9-18,30.7-35.5,47.7-52.9l4.7-4.9l4.8-4.6l9.4-9.2l9.7-8.7l4.8-4.3l5-4.1l10-8.1c3.4-2.6,6.9-5.1,10.5-7.6l5.3-3.8
	c1.8-1.2,3.7-2.4,5.5-3.5c3.7-2.3,7.5-4.6,11.3-6.9c27.7-20.2,56.6-38.7,86.5-55.4c6.5-3.4,12.4-7,18.2-10.7
	c5.8-3.5,11.4-7.1,16.9-10.8l16.7-10.6c2.8-1.8,5.7-3.4,8.6-5.1s5.9-3.3,9-4.9c0.7-0.3,0.7-0.9,0.2-1.2c-0.8-0.2-1.7-0.1-2.4,0.3
	c-20.1,7.2-39.6,15.7-59.1,24.4s-38.9,18-58.7,27.6c-2.3,1.1-4.5,2.2-6.8,3.2c-2.3,1-4.5,2-6.7,3.1c-0.6,0.1-1.2,0.3-1.7,0.6
	c-4.2,1.6-8.4,3.2-12.6,4.9c1.4-0.7,2.8-1.4,4.2-2.2c2.8-1.3,4.7-3.5,4.2-5c-0.4-0.6-1.1-1-1.8-1c2.4-1.6,4.8-3.3,7.2-5l7.2-4.9
	l7.2-4.9l3.6-2.5l3.6-2.4c2.9-1.3,5.5-3,8-4.9c3.2-0.9,6.3-2.1,9.5-2.9l9.6-2.7c3.2-0.9,6.4-1.9,9.6-2.7l9.7-2.3l3.3-0.6
	c4.2-1,7.9-3.2,9.5-5.4c0.4-0.6,0.7-1.2,0.8-1.9c28.3-11.6,58.2-20.2,86.3-29.8c1.4-0.5,2.1-1.2,1.8-1.9c0.6,0.1,1.3,0,1.9-0.3
	c1.7-0.8,3.5-1.6,5.3-2.2c0.9-0.3,1.9-0.6,2.9-0.9l3-0.8c0.9-0.3,1.3-0.8,0.9-1.1c-0.7-0.4-1.5-0.5-2.3-0.2c-4,1.1-7.9,2.5-11.7,4.2
	c-0.3,0.1-0.6,0.4-0.7,0.7c-1.2-0.4-2.4-0.4-3.5,0c-29.8,6-57.5,16.5-86.2,25.9c13.9-6.9,28.3-12.8,43.1-17.8
	c4.6-1.6,9.2-3.2,13.7-4.8l13.6-4.4l6.8-2.2c2.3-0.7,4.6-1.2,6.9-1.8c4.7-1.2,9.4-2.3,14.3-3.2c1-0.1,1.7-0.7,1.5-1
	s-1.1-0.7-2.1-0.4c-9.8,1.7-19.5,4-29,6.9c-4.7,1.4-9.3,2.8-13.9,4.4l-13.6,5c-2.3,0.8-4.5,1.6-6.8,2.5l-6.7,2.7
	c-4.5,1.8-9.1,3.4-13.6,5.1c-9.1,3.7-18.5,6.7-28.3,10.1c-1.5,0.5-3.1,0.9-4.6,1.4l8.2-5.5l4-2.9l4.2-2.6c5.6-3.4,11.1-7,16.8-10.4
	l13.9-4c2.3-0.7,4.6-1.4,7-2l7-1.8l14-3.6l14.1-3.2l7.1-1.6l7.1-1.4l14.2-2.8l14.3-2.4l7.1-1.2c2.4-0.4,4.8-0.7,7.2-1
	c1.9-0.1,3.3-0.9,3.3-1.7s-1.7-1.4-3.6-1.3c-22.1,0-44.2,1.5-66.2,4.3l4.4-1.9l4.5-1.2l5.3-0.9c1.8-0.3,3.5-0.5,5.3-0.8l10.7-1.5
	c7.1-1.2,14.2-1.8,21.4-2.7c5.4-0.4,9.7-2.6,9.8-5c0-1.2-1.1-2.2-2.8-2.9c-2.2-0.7-4.4-1-6.7-0.8l2.5-0.7c0.8-0.2,1.4-0.7,1.2-1
	c-0.7-0.4-1.5-0.6-2.3-0.4l-9,2.5c-27.7,1.9-55.2,6.4-82.2,13.3c28.9-9.7,58.8-16.2,89.1-19.5c-0.6,0.3-0.6,0.8,0.2,1.1
	c0.9,0.2,1.8,0.1,2.6-0.3c0.7-0.4,0.5-0.9-0.1-1.1h-0.1c2-0.2,4.1-0.5,6.2-0.6l6.2-0.4l12.4-0.7c4.1-0.3,8.3-0.2,12.5-0.2h12.5
	c1,0,1.8-0.4,1.8-0.8S-305.4,45.8-306.4,45.8z M-892.4,409.2c0.5-0.4,1-0.8,1.6-1.1L-892.4,409.2z M-884.7,332.5
	c-2.5,3.7-5.1,7.5-7.5,11.3c1.1-3.8,2-7.5,2.7-11c10.6-13.5,22.1-25.5,32.8-39.5c0.8-0.8,1.6-1.7,2.5-2.4l5-2.6l-0.5,0.5
	c-1.5,1.6-3.1,3.1-4.7,4.8l1.2-0.6l-15.6,20C-874.1,319-879.5,325.5-884.7,332.5L-884.7,332.5z M-861.2,382.9l-2.7,1.1L-861.2,382.9
	L-861.2,382.9z M-853,329.7c-2.4,3.5-4.8,7.1-7.2,10.7c-0.9,1.4-1.7,2.7-2.5,4.1s-1.4,2.9-1.9,4.3c-4,1.9-7.8,4.3-11.2,7.2
	c5.1-6.2,9.8-13.8,15-20.3l8.4-10.8c2.8-3.6,5.7-7,8.5-10.5l-1.5,2.8c-0.4,0.9-1.7,2.5-0.1,2.3l-3.9,5L-853,329.7z M-839.6,423.2
	l-5.9-7.8l6.4,7.6L-839.6,423.2z"/>
<linearGradient id="SVGID_7_" gradientUnits="userSpaceOnUse" x1="14.5389" y1="380.4511" x2="358.5917" y2="36.3983">
	<stop  offset="0" style="stop-color:#5438B8"/>
	<stop  offset="1" style="stop-color:#9854F4"/>
</linearGradient>
<path class="st6" d="M268.3,288.6l-119.5-126v123.3H124V106.4h2.7l119.4,126.3V109.1H271v179.5H268.3z"/>
<linearGradient id="SVGID_8_" gradientUnits="userSpaceOnUse" x1="56.0353" y1="338.8647" x2="400.0881" y2="-5.1881">
	<stop  offset="0" style="stop-color:#5438B8"/>
	<stop  offset="1" style="stop-color:#9854F4"/>
</linearGradient>
<path class="st7" d="M0,0.1v394.8h394.8V0.1H0z M14.8,380.1V14.9H380v365.2L14.8,380.1z"/>
</svg>
